<svg t="1703836699988" class="icon" viewBox="0 0 1024 1024" version="1.1" xmlns="http://www.w3.org/2000/svg" p-id="2289"
	id="mx_n_1703836699989" width="200" height="200">
	<path
		d="M647.8 751.8H378.4c-9 0-17.5-3.8-23.1-10.3-33.2-38.6-59-81.7-76.8-128-18.4-48-27.7-98.3-27.7-149.7 0-81.1 23.7-160.5 68.6-229.7C362.9 166.9 425 111.4 498.7 73.5c8.9-4.6 19.8-4.6 28.7 0 73.9 38 135.9 93.5 179.5 160.6 44.8 69.1 68.5 148.6 68.5 229.6 0 51.4-9.4 101.7-27.7 149.7-17.8 46.3-43.6 89.5-76.8 128-5.6 6.6-14.1 10.4-23.1 10.4z m-254.8-55h240.2c54.3-67.6 83-147.8 83-233 0-136.9-77.4-263.7-203.1-334.4C387.4 200.2 310 326.9 310 463.8c0 85.2 28.7 165.4 83 233z m253.4 137.6H380c-15.2 0-27.5-12.3-27.5-27.5v-82.6c0-15.2 12.3-27.5 27.5-27.5h266.3c15.2 0 27.5 12.3 27.5 27.5v82.6c0.1 15.2-12.3 27.5-27.4 27.5z m-238.8-55h211.3v-27.5H407.6v27.5z m105.6-328.1c-58.8 0-106.7-47.9-106.7-106.7 0-58.8 47.9-106.7 106.7-106.7 58.8 0 106.7 47.9 106.7 106.7 0 58.9-47.9 106.7-106.7 106.7z m0-158.2c-28.5 0-51.6 23.1-51.6 51.6s23.1 51.6 51.6 51.6 51.6-23.1 51.6-51.6-23.1-51.6-51.6-51.6zM198.9 740.9c-9.1 0-17.7-4.5-22.8-12.1-22.1-32.8-33.8-71.2-33.8-111.1 0-66.8 33.2-128.9 88.8-166 12.7-8.5 29.7-5.1 38.2 7.6 8.5 12.7 5.1 29.7-7.6 38.2-40.3 26.9-64.4 71.8-64.4 120.2 0 16 2.5 31.5 7.5 46.2 23.4-22.1 52.1-38.4 83.4-47.1 14.6-4.1 29.8 4.5 33.9 19.1 4.1 14.6-4.5 29.8-19.2 33.9-33.1 9.3-62 30-81.2 58.8-5.1 7.7-13.6 12.3-22.8 12.3z m627.9 0c-9.2 0-17.7-4.6-22.9-12.2-19.3-28.7-48.1-49.6-81.2-58.8-14.6-4.1-23.2-19.3-19.1-33.9 4.1-14.6 19.3-23.2 33.9-19.1 31.4 8.7 60 25 83.4 47.1 4.9-14.7 7.5-30.3 7.5-46.2 0-48.4-24.1-93.3-64.4-120.2-12.7-8.5-16.1-25.5-7.6-38.2 8.5-12.7 25.5-16.1 38.2-7.6 55.7 37.1 88.8 99.2 88.8 166 0 39.8-11.7 78.3-33.8 111.1-5.1 7.5-13.7 12-22.8 12z m-313.6-76.7c-15.2 0-27.5-12.3-27.5-27.5V499.6c0-15.2 12.3-27.5 27.5-27.5s27.5 12.3 27.5 27.5v137.1c0 15.2-12.3 27.5-27.5 27.5zM404 923.8c-15.2 0-27.5-12.3-27.5-27.5v-16.7c0-15.2 12.3-27.5 27.5-27.5s27.5 12.3 27.5 27.5v16.7c0 15.1-12.3 27.5-27.5 27.5z m216.3 1c-15.2 0-27.5-12.3-27.5-27.5v-17.7c0-15.2 12.3-27.5 27.5-27.5s27.5 12.3 27.5 27.5v17.7c0 15.1-12.3 27.5-27.5 27.5zM513.2 958c-15.2 0-27.5-12.3-27.5-27.5v-51.9c0-15.2 12.3-27.5 27.5-27.5s27.5 12.3 27.5 27.5v51.9c0 15.2-12.3 27.5-27.5 27.5z m0 0"
		fill="#9a57ee" p-id="2290"></path>
</svg>